<svg width="1116" height="785" viewBox="0 0 1116 785" fill="none" xmlns="http://www.w3.org/2000/svg">
<g clip-path="url(#clip0_104_29)">
<path d="M276 164.49C276 205.078 306.047 238.92 349.5 237.981C349.5 237.981 381.503 239.412 408.798 216.734M276 164.49C276 123.903 308.907 91 349.5 91C390.093 91 423 123.903 423 164.49H276Z" stroke="#373737" stroke-width="42" stroke-linecap="round" stroke-linejoin="round"/>
<path d="M945 453.49C945 494.078 975.047 527.92 1018.5 526.981C1018.5 526.981 1050.5 528.412 1077.8 505.734M945 453.49C945 412.903 977.907 380 1018.5 380C1059.09 380 1092 412.903 1092 453.49H945Z" stroke="#373737" stroke-width="42" stroke-linecap="round" stroke-linejoin="round"/>
<path d="M208.452 98.9269C210.619 63.0939 183.328 32.2883 147.495 30.1207C111.662 27.9531 80.8564 55.2443 78.6888 91.0773C76.5212 126.91 103.812 157.716 139.645 159.883C200.286 163.552 246.471 215.684 242.803 276.325C239.135 336.965 187.002 383.15 126.362 379.482C65.7211 375.814 19.536 323.681 23.2042 263.041C24.4769 242.003 31.5827 222.705 42.8533 206.624" stroke="#373737" stroke-width="42" stroke-linecap="round"/>
<path d="M309.523 358.69C341.355 306.947 409.107 290.805 460.851 322.637C512.595 354.47 528.736 422.222 496.904 473.965C465.071 525.709 397.32 541.851 345.576 510.019C327.624 498.975 313.958 483.608 305.093 466.086M306.801 299.656L302.266 643.046" stroke="#373737" stroke-width="42" stroke-linecap="round"/>
<path d="M567.037 620.562C609.5 588 637.254 588.3 649.377 614.9C661.5 641.5 645.316 678.654 633.134 692.461C620.951 706.267 598.211 719.262 575.427 711.14C552.642 703.019 549.233 682.517 547.936 672.563M514.893 762.522L575.427 597.721C567.001 603.988 543.099 619.204 514.893 629.924" stroke="#868686" stroke-width="35" stroke-linecap="round" stroke-linejoin="round"/>
<path d="M716.533 598.418C708.108 604.686 684.206 619.901 656 630.622" stroke="#868686" stroke-width="35" stroke-linecap="round" stroke-linejoin="round"/>
<path d="M712.709 622.501C730.5 600.423 776 580 783.5 617.5M720.424 600.423L682.657 708.501" stroke="#868686" stroke-width="35" stroke-linecap="round" stroke-linejoin="round"/>
<circle cx="637.5" cy="453.5" r="73.5" stroke="#373737" stroke-width="42"/>
<path d="M635.001 313.155C579.736 338.25 514.627 313.716 489.575 258.358C484.011 246.063 480.891 233.282 480.009 220.562L479.001 42M584.227 128.545L481 128.5" stroke="#373737" stroke-width="42" stroke-linecap="round" stroke-linejoin="round"/>
<path d="M755.233 501.315C755.233 501.315 775.787 524.977 820.4 527.426C869.646 530.129 895.33 512.51 896.7 487.548C898.071 462.585 871.072 443.577 824.839 446.547C777.809 449.569 769.521 423.481 771.204 411.054C772.888 398.628 783.537 377.952 834.128 380.958C858.423 382.401 878.338 392.238 878.338 392.238" stroke="#373737" stroke-width="42" stroke-linecap="round"/>
<path d="M902.47 670.478C890.54 702.708 861.122 715.953 840.085 708.166C819.047 700.378 805.344 671.172 817.274 638.942C829.204 606.712 858.621 593.468 879.659 601.255C900.697 609.042 914.4 638.249 902.47 670.478Z" stroke="#868686" stroke-width="35"/>
</g>
<defs>
<clipPath id="clip0_104_29">
<rect width="1116" height="785" fill="white"/>
</clipPath>
</defs>
</svg>
