<svg width="1734" height="681" viewBox="0 0 1734 681" fill="none" xmlns="http://www.w3.org/2000/svg">
<g clip-path="url(#clip0_204_30)">
<path d="M276 164.49C276 205.078 306.047 238.92 349.5 237.981C349.5 237.981 381.503 239.412 408.798 216.734M276 164.49C276 123.903 308.907 91 349.5 91C390.093 91 423 123.903 423 164.49H276Z" stroke="#373737" stroke-width="42" stroke-linecap="round" stroke-linejoin="round"/>
<path d="M945 453.49C945 494.078 975.047 527.92 1018.5 526.981C1018.5 526.981 1050.5 528.412 1077.8 505.734M945 453.49C945 412.903 977.907 380 1018.5 380C1059.09 380 1092 412.903 1092 453.49H945Z" stroke="#373737" stroke-width="42" stroke-linecap="round" stroke-linejoin="round"/>
<path d="M208.452 98.9269C210.619 63.0939 183.328 32.2883 147.495 30.1207C111.662 27.9531 80.8564 55.2443 78.6888 91.0773C76.5212 126.91 103.812 157.716 139.645 159.883C200.286 163.552 246.471 215.684 242.803 276.325C239.135 336.965 187.002 383.15 126.362 379.482C65.7211 375.814 19.536 323.681 23.2042 263.041C24.4769 242.003 31.5827 222.705 42.8533 206.624" stroke="#373737" stroke-width="42" stroke-linecap="round"/>
<path d="M309.523 358.69C341.355 306.947 409.107 290.805 460.851 322.637C512.595 354.47 528.736 422.222 496.904 473.965C465.071 525.709 397.32 541.851 345.576 510.019C327.624 498.975 313.958 483.608 305.093 466.086M306.801 299.656L302.266 643.046" stroke="#373737" stroke-width="42" stroke-linecap="round"/>
<path d="M1271.86 409.239C1326.63 367.243 1362.42 367.629 1378.06 401.936C1393.69 436.243 1372.82 484.163 1357.11 501.97C1341.39 519.777 1312.07 536.536 1282.68 526.061C1253.29 515.587 1248.9 489.145 1247.22 476.306M1204.61 592.33L1282.68 379.78C1271.81 387.864 1240.99 407.488 1204.61 421.314" stroke="#868686" stroke-width="42" stroke-linecap="round" stroke-linejoin="round"/>
<path d="M1464.67 380.68C1453.8 388.763 1422.98 408.387 1386.6 422.214" stroke="#868686" stroke-width="42" stroke-linecap="round" stroke-linejoin="round"/>
<path d="M1459.74 411.74C1482.68 383.265 1541.37 356.925 1551.04 405.291M1469.69 383.265L1420.98 522.657" stroke="#868686" stroke-width="42" stroke-linecap="round" stroke-linejoin="round"/>
<circle cx="637.5" cy="453.5" r="73.5" stroke="#373737" stroke-width="42"/>
<path d="M635.001 313.155C579.736 338.25 514.627 313.716 489.575 258.358C484.011 246.063 480.891 233.282 480.009 220.562L479.001 42M584.227 128.545L481 128.5" stroke="#373737" stroke-width="42" stroke-linecap="round" stroke-linejoin="round"/>
<path d="M755.233 501.315C755.233 501.315 775.787 524.977 820.4 527.426C869.646 530.129 895.33 512.51 896.7 487.548C898.071 462.585 871.072 443.577 824.839 446.547C777.809 449.569 769.521 423.481 771.204 411.054C772.888 398.628 783.537 377.952 834.128 380.958C858.423 382.401 878.338 392.238 878.338 392.238" stroke="#373737" stroke-width="42" stroke-linecap="round"/>
<path d="M1703.95 474.164C1688.35 516.302 1649.64 534.125 1621.47 523.697C1593.3 513.27 1575.53 474.538 1591.13 432.4C1606.72 390.262 1645.43 372.439 1673.6 382.866C1701.77 393.293 1719.55 432.025 1703.95 474.164Z" stroke="#868686" stroke-width="42"/>
</g>
<defs>
<clipPath id="clip0_204_30">
<rect width="1734" height="681" fill="white"/>
</clipPath>
</defs>
</svg>
